<?xml version="1.0" encoding="UTF-8" standalone="no"?>
<!DOCTYPE svg PUBLIC "-//W3C//DTD SVG 1.1//EN" "http://www.w3.org/Graphics/SVG/1.1/DTD/svg11.dtd">
<svg width="100%" height="100%" viewBox="0 0 2481 3508" version="1.1" xmlns="http://www.w3.org/2000/svg" xmlns:xlink="http://www.w3.org/1999/xlink" xml:space="preserve" xmlns:serif="http://www.serif.com/" style="fill-rule:evenodd;clip-rule:evenodd;stroke-linejoin:round;stroke-miterlimit:2;">
    <path d="M934,1014C934,1014 898.645,1315.981 1191,1545C1472.167,1367 1451,1014 1451,1014L1273,1134C1273,1134 1227.595,1273.642 1191,1303C1159.167,1283.667 1118,1138 1118,1138L1042,1089C1042,1089 1031.614,1229.426 1192,1410C1299.5,1306.833 1327,1178 1327,1178L1367,1155C1351.667,1331 1197,1460 1197,1460C1197,1460 1011,1334.667 1004,1058C1004,1058 1174,985.5 1329,1048L1394,989C1394,989 1162.833,896.333 934,1014Z" style="fill:rgb(255,200,0);"/>
</svg>
