<svg width="19" height="20" viewBox="0 0 19 20" fill="none" xmlns="http://www.w3.org/2000/svg">
<path d="M8.24186 17.425V10.575L2.06047 7.1V13.95L8.24186 17.425ZM10.3023 17.425L16.4837 13.95V7.1L10.3023 10.575V17.425ZM9.27209 8.85L15.3762 5.425L9.27209 2L3.16797 5.425L9.27209 8.85ZM1.03023 15.7C0.703992 15.5167 0.450727 15.275 0.270436 14.975C0.0901453 14.675 0 14.3417 0 13.975V6.025C0 5.65833 0.0901453 5.325 0.270436 5.025C0.450727 4.725 0.703992 4.48333 1.03023 4.3L8.24186 0.275C8.5681 0.0916667 8.91151 0 9.27209 0C9.63268 0 9.97609 0.0916667 10.3023 0.275L17.514 4.3C17.8402 4.48333 18.0935 4.725 18.2738 5.025C18.454 5.325 18.5442 5.65833 18.5442 6.025V13.975C18.5442 14.3417 18.454 14.675 18.2738 14.975C18.0935 15.275 17.8402 15.5167 17.514 15.7L10.3023 19.725C9.97609 19.9083 9.63268 20 9.27209 20C8.91151 20 8.5681 19.9083 8.24186 19.725L1.03023 15.7Z" fill="#E3E3E3"/>
</svg>
