<svg width="20" height="19" viewBox="0 0 20 19" fill="none" xmlns="http://www.w3.org/2000/svg">
<path d="M16.8958 18.025L11.2553 12.55L13.4188 10.45L19.0593 15.925L16.8958 18.025ZM2.6786 18.025L0.515116 15.925L7.62372 9.025L5.87233 7.325L5.15116 8.025L3.83762 6.75V8.8L3.11645 9.5L0 6.475L0.721163 5.775H2.83314L1.54535 4.525L5.20267 0.975C5.54609 0.641667 5.91525 0.4 6.31017 0.25C6.7051 0.1 7.1086 0.025 7.5207 0.025C7.93279 0.025 8.3363 0.1 8.73122 0.25C9.12614 0.4 9.49531 0.641667 9.83872 0.975L7.46919 3.275L8.75698 4.525L8.03581 5.225L9.78721 6.925L12.1052 4.675C12.0366 4.49167 11.9807 4.3 11.9378 4.1C11.8949 3.9 11.8734 3.7 11.8734 3.5C11.8734 2.51667 12.2211 1.6875 12.9165 1.0125C13.6119 0.3375 14.4662 0 15.4792 0C15.7368 0 15.9815 0.025 16.2133 0.075C16.4451 0.125 16.6812 0.2 16.9216 0.3L14.3717 2.775L16.2262 4.575L18.776 2.1C18.8962 2.33333 18.9777 2.5625 19.0207 2.7875C19.0636 3.0125 19.0851 3.25 19.0851 3.5C19.0851 4.48333 18.7374 5.3125 18.0419 5.9875C17.3465 6.6625 16.4923 7 15.4792 7C15.2732 7 15.0672 6.98333 14.8611 6.95C14.6551 6.91667 14.4576 6.85833 14.2687 6.775L2.6786 18.025Z" fill="#E3E3E3"/>
</svg>
