<svg width="21" height="20" viewBox="0 0 21 20" fill="none" xmlns="http://www.w3.org/2000/svg">
<path d="M6.1814 15.95C6.3531 15.9667 6.52051 15.9792 6.68363 15.9875C6.84675 15.9958 7.02275 16 7.21163 16C7.4005 16 7.5765 15.9958 7.73962 15.9875C7.90274 15.9792 8.07016 15.9667 8.24186 15.95V18H18.5442V8H16.4322C16.4494 7.83333 16.4623 7.67083 16.4708 7.5125C16.4794 7.35417 16.4837 7.18333 16.4837 7C16.4837 6.81667 16.4794 6.64583 16.4708 6.4875C16.4623 6.32917 16.4494 6.16667 16.4322 6H18.5442C19.1108 6 19.5959 6.19583 19.9994 6.5875C20.4029 6.97917 20.6047 7.45 20.6047 8V18C20.6047 18.55 20.4029 19.0208 19.9994 19.4125C19.5959 19.8042 19.1108 20 18.5442 20H8.24186C7.67523 20 7.19017 19.8042 6.78666 19.4125C6.38315 19.0208 6.1814 18.55 6.1814 18V15.95ZM7.21163 14C5.20267 14 3.4985 13.3208 2.0991 11.9625C0.6997 10.6042 0 8.95 0 7C0 5.05 0.6997 3.39583 2.0991 2.0375C3.4985 0.679167 5.20267 0 7.21163 0C9.22058 0 10.9248 0.679167 12.3242 2.0375C13.7236 3.39583 14.4233 5.05 14.4233 7C14.4233 8.95 13.7236 10.6042 12.3242 11.9625C10.9248 13.3208 9.22058 14 7.21163 14ZM7.21163 12C8.63678 12 9.8516 11.5125 10.8561 10.5375C11.8606 9.5625 12.3628 8.38333 12.3628 7C12.3628 5.61667 11.8606 4.4375 10.8561 3.4625C9.8516 2.4875 8.63678 2 7.21163 2C5.78647 2 4.57166 2.4875 3.56718 3.4625C2.5627 4.4375 2.06047 5.61667 2.06047 7C2.06047 8.38333 2.5627 9.5625 3.56718 10.5375C4.57166 11.5125 5.78647 12 7.21163 12Z" fill="#E3E3E3"/>
</svg>
