<svg width="20" height="19" viewBox="0 0 20 19" fill="none" xmlns="http://www.w3.org/2000/svg">
  <path d="M2 3.25C2 2.56 2.56 2 3.25 2H12.75C13.44 2 14 2.56 14 3.25V4.25C14 4.94 13.44 5.5 12.75 5.5H3.25C2.56 5.5 2 4.94 2 4.25V3.25ZM2 8.25C2 7.56 2.56 7 3.25 7H12.75C13.44 7 14 7.56 14 8.25V9.25C14 9.94 13.44 10.5 12.75 10.5H3.25C2.56 10.5 2 9.94 2 9.25V8.25ZM2 13.25C2 12.56 2.56 12 3.25 12H12.75C13.44 12 14 12.56 14 13.25V14.25C14 14.94 13.44 15.5 12.75 15.5H3.25C2.56 15.5 2 14.94 2 14.25V13.25Z" fill="#E3E3E3"/>
  <path d="M16 4.5L18.5 7L16 9.5V8H15V6H16V4.5ZM16 9.5L18.5 12L16 14.5V13H15V11H16V9.5Z" fill="#E3E3E3"/>
</svg>

