<svg width="21" height="20" viewBox="0 0 21 20" fill="none" xmlns="http://www.w3.org/2000/svg">
<path d="M7.5207 20L7.1086 16.8C6.88539 16.7167 6.67505 16.6167 6.47759 16.5C6.28013 16.3833 6.08696 16.2583 5.89808 16.125L2.83314 17.375L0 12.625L2.65285 10.675C2.63568 10.5583 2.62709 10.4458 2.62709 10.3375V9.6625C2.62709 9.55417 2.63568 9.44167 2.65285 9.325L0 7.375L2.83314 2.625L5.89808 3.875C6.08696 3.74167 6.28442 3.61667 6.49047 3.5C6.69651 3.38333 6.90256 3.28333 7.1086 3.2L7.5207 0H13.187L13.5991 3.2C13.8223 3.28333 14.0326 3.38333 14.2301 3.5C14.4275 3.61667 14.6207 3.74167 14.8096 3.875L17.8745 2.625L20.7077 7.375L18.0548 9.325C18.072 9.44167 18.0806 9.55417 18.0806 9.6625V10.3375C18.0806 10.4458 18.0634 10.5583 18.0291 10.675L20.6819 12.625L17.8488 17.375L14.8096 16.125C14.6207 16.2583 14.4233 16.3833 14.2172 16.5C14.0112 16.6167 13.8051 16.7167 13.5991 16.8L13.187 20H7.5207ZM9.32361 18H11.3583L11.7189 15.35C12.2512 15.2167 12.7448 15.0208 13.1999 14.7625C13.6549 14.5042 14.0713 14.1917 14.449 13.825L16.9988 14.85L18.0033 13.15L15.7883 11.525C15.8742 11.2917 15.9343 11.0458 15.9686 10.7875C16.0029 10.5292 16.0201 10.2667 16.0201 10C16.0201 9.73333 16.0029 9.47083 15.9686 9.2125C15.9343 8.95417 15.8742 8.70833 15.7883 8.475L18.0033 6.85L16.9988 5.15L14.449 6.2C14.0713 5.81667 13.6549 5.49583 13.1999 5.2375C12.7448 4.97917 12.2512 4.78333 11.7189 4.65L11.3841 2H9.34936L8.98878 4.65C8.45649 4.78333 7.96284 4.97917 7.50782 5.2375C7.0528 5.49583 6.63642 5.80833 6.25866 6.175L3.70884 5.15L2.70436 6.85L4.91936 8.45C4.83351 8.7 4.77341 8.95 4.73907 9.2C4.70473 9.45 4.68756 9.71667 4.68756 10C4.68756 10.2667 4.70473 10.525 4.73907 10.775C4.77341 11.025 4.83351 11.275 4.91936 11.525L2.70436 13.15L3.70884 14.85L6.25866 13.8C6.63642 14.1833 7.0528 14.5042 7.50782 14.7625C7.96284 15.0208 8.45649 15.2167 8.98878 15.35L9.32361 18ZM10.4053 13.5C11.4012 13.5 12.2512 13.1583 12.9552 12.475C13.6592 11.7917 14.0112 10.9667 14.0112 10C14.0112 9.03333 13.6592 8.20833 12.9552 7.525C12.2512 6.84167 11.4012 6.5 10.4053 6.5C9.39229 6.5 8.53805 6.84167 7.84265 7.525C7.14724 8.20833 6.79954 9.03333 6.79954 10C6.79954 10.9667 7.14724 11.7917 7.84265 12.475C8.53805 13.1583 9.39229 13.5 10.4053 13.5Z" fill="#E3E3E3"/>
</svg>
