<svg width="52" height="50" viewBox="0 0 52 50" fill="none" xmlns="http://www.w3.org/2000/svg">
<path d="M9.91599 37.75C12.1052 36.125 14.552 34.8438 17.2564 33.9062C19.9608 32.9688 22.7939 32.5 25.7558 32.5C28.7177 32.5 31.5509 32.9688 34.2552 33.9062C36.9596 34.8438 39.4064 36.125 41.5956 37.75C43.0981 36.0417 44.2678 34.1042 45.1049 31.9375C45.9419 29.7708 46.3605 27.4583 46.3605 25C46.3605 19.4583 44.3537 14.7396 40.34 10.8438C36.3264 6.94792 31.465 5 25.7558 5C20.0466 5 15.1852 6.94792 11.1716 10.8438C7.15797 14.7396 5.15116 19.4583 5.15116 25C5.15116 27.4583 5.56969 29.7708 6.40676 31.9375C7.24382 34.1042 8.41357 36.0417 9.91599 37.75ZM25.7558 27.5C23.2232 27.5 21.0876 26.6562 19.3491 24.9688C17.6105 23.2812 16.7413 21.2083 16.7413 18.75C16.7413 16.2917 17.6105 14.2188 19.3491 12.5312C21.0876 10.8438 23.2232 10 25.7558 10C28.2885 10 30.4241 10.8438 32.1626 12.5312C33.9011 14.2188 34.7703 16.2917 34.7703 18.75C34.7703 21.2083 33.9011 23.2812 32.1626 24.9688C30.4241 26.6562 28.2885 27.5 25.7558 27.5ZM25.7558 50C22.1929 50 18.8447 49.3438 15.711 48.0312C12.5774 46.7188 9.8516 44.9375 7.53358 42.6875C5.21555 40.4375 3.38045 37.7917 2.02827 34.75C0.67609 31.7083 0 28.4583 0 25C0 21.5417 0.67609 18.2917 2.02827 15.25C3.38045 12.2083 5.21555 9.5625 7.53358 7.3125C9.8516 5.0625 12.5774 3.28125 15.711 1.96875C18.8447 0.65625 22.1929 0 25.7558 0C29.3187 0 32.667 0.65625 35.8006 1.96875C38.9342 3.28125 41.66 5.0625 43.9781 7.3125C46.2961 9.5625 48.1312 12.2083 49.4834 15.25C50.8355 18.2917 51.5116 21.5417 51.5116 25C51.5116 28.4583 50.8355 31.7083 49.4834 34.75C48.1312 37.7917 46.2961 40.4375 43.9781 42.6875C41.66 44.9375 38.9342 46.7188 35.8006 48.0312C32.667 49.3438 29.3187 50 25.7558 50ZM25.7558 45C28.0309 45 30.1772 44.6771 32.1948 44.0312C34.2123 43.3854 36.0581 42.4583 37.7323 41.25C36.0581 40.0417 34.2123 39.1146 32.1948 38.4688C30.1772 37.8229 28.0309 37.5 25.7558 37.5C23.4807 37.5 21.3344 37.8229 19.3169 38.4688C17.2993 39.1146 15.4535 40.0417 13.7794 41.25C15.4535 42.4583 17.2993 43.3854 19.3169 44.0312C21.3344 44.6771 23.4807 45 25.7558 45ZM25.7558 22.5C26.8719 22.5 27.7948 22.1458 28.5246 21.4375C29.2543 20.7292 29.6192 19.8333 29.6192 18.75C29.6192 17.6667 29.2543 16.7708 28.5246 16.0625C27.7948 15.3542 26.8719 15 25.7558 15C24.6397 15 23.7168 15.3542 22.9871 16.0625C22.2573 16.7708 21.8924 17.6667 21.8924 18.75C21.8924 19.8333 22.2573 20.7292 22.9871 21.4375C23.7168 22.1458 24.6397 22.5 25.7558 22.5Z" fill="#E3E3E3"/>
</svg>
