<svg width="27" height="27" viewBox="0 0 27 27" fill="none" xmlns="http://www.w3.org/2000/svg">
<path d="M9.80597 27L9.26866 22.68C8.97761 22.5675 8.70336 22.4325 8.4459 22.275C8.18843 22.1175 7.93657 21.9488 7.6903 21.7688L3.69403 23.4563L0 17.0438L3.45896 14.4113C3.43657 14.2538 3.42537 14.1019 3.42537 13.9556V13.0444C3.42537 12.8981 3.43657 12.7463 3.45896 12.5888L0 9.95625L3.69403 3.54375L7.6903 5.23125C7.93657 5.05125 8.19403 4.8825 8.46269 4.725C8.73134 4.5675 9 4.4325 9.26866 4.32L9.80597 0H17.194L17.7313 4.32C18.0224 4.4325 18.2966 4.5675 18.5541 4.725C18.8116 4.8825 19.0634 5.05125 19.3097 5.23125L23.306 3.54375L27 9.95625L23.541 12.5888C23.5634 12.7463 23.5746 12.8981 23.5746 13.0444V13.9556C23.5746 14.1019 23.5522 14.2538 23.5075 14.4113L26.9664 17.0438L23.2724 23.4563L19.3097 21.7688C19.0634 21.9488 18.806 22.1175 18.5373 22.275C18.2687 22.4325 18 22.5675 17.7313 22.68L17.194 27H9.80597ZM12.1567 24.3H14.8097L15.2799 20.7225C15.9739 20.5425 16.6175 20.2781 17.2108 19.9294C17.8041 19.5806 18.347 19.1588 18.8396 18.6638L22.1642 20.0475L23.4739 17.7525L20.5858 15.5588C20.6978 15.2438 20.7761 14.9119 20.8209 14.5631C20.8657 14.2144 20.8881 13.86 20.8881 13.5C20.8881 13.14 20.8657 12.7856 20.8209 12.4369C20.7761 12.0881 20.6978 11.7563 20.5858 11.4413L23.4739 9.2475L22.1642 6.9525L18.8396 8.37C18.347 7.8525 17.8041 7.41938 17.2108 7.07063C16.6175 6.72188 15.9739 6.4575 15.2799 6.2775L14.8433 2.7H12.1903L11.7201 6.2775C11.0261 6.4575 10.3825 6.72188 9.78918 7.07063C9.1959 7.41938 8.65299 7.84125 8.16045 8.33625L4.83582 6.9525L3.52612 9.2475L6.41418 11.4075C6.30224 11.745 6.22388 12.0825 6.1791 12.42C6.13433 12.7575 6.11194 13.1175 6.11194 13.5C6.11194 13.86 6.13433 14.2088 6.1791 14.5463C6.22388 14.8838 6.30224 15.2213 6.41418 15.5588L3.52612 17.7525L4.83582 20.0475L8.16045 18.63C8.65299 19.1475 9.1959 19.5806 9.78918 19.9294C10.3825 20.2781 11.0261 20.5425 11.7201 20.7225L12.1567 24.3ZM13.5672 18.225C14.8657 18.225 15.9739 17.7638 16.8918 16.8413C17.8097 15.9188 18.2687 14.805 18.2687 13.5C18.2687 12.195 17.8097 11.0813 16.8918 10.1588C15.9739 9.23625 14.8657 8.775 13.5672 8.775C12.2463 8.775 11.1325 9.23625 10.2257 10.1588C9.31903 11.0813 8.86567 12.195 8.86567 13.5C8.86567 14.805 9.31903 15.9188 10.2257 16.8413C11.1325 17.7638 12.2463 18.225 13.5672 18.225Z" fill="#E3E3E3"/>
</svg>
