<svg width="38" height="38" viewBox="0 0 38 38" fill="none" xmlns="http://www.w3.org/2000/svg">
<path d="M19 19C16.3875 19 14.151 18.0698 12.2906 16.2094C10.4302 14.349 9.5 12.1125 9.5 9.5C9.5 6.8875 10.4302 4.65104 12.2906 2.79062C14.151 0.930208 16.3875 0 19 0C21.6125 0 23.849 0.930208 25.7094 2.79062C27.5698 4.65104 28.5 6.8875 28.5 9.5C28.5 12.1125 27.5698 14.349 25.7094 16.2094C23.849 18.0698 21.6125 19 19 19ZM0 38V31.35C0 30.0042 0.346354 28.7672 1.03906 27.6391C1.73177 26.5109 2.65208 25.65 3.8 25.0562C6.25417 23.8292 8.74792 22.9089 11.2812 22.2953C13.8146 21.6818 16.3875 21.375 19 21.375C21.6125 21.375 24.1854 21.6818 26.7188 22.2953C29.2521 22.9089 31.7458 23.8292 34.2 25.0562C35.3479 25.65 36.2682 26.5109 36.9609 27.6391C37.6536 28.7672 38 30.0042 38 31.35V38H0ZM4.75 33.25H33.25V31.35C33.25 30.9146 33.1411 30.5187 32.9234 30.1625C32.7057 29.8062 32.4188 29.5292 32.0625 29.3312C29.925 28.2625 27.7677 27.4609 25.5906 26.9266C23.4135 26.3922 21.2167 26.125 19 26.125C16.7833 26.125 14.5865 26.3922 12.4094 26.9266C10.2323 27.4609 8.075 28.2625 5.9375 29.3312C5.58125 29.5292 5.29427 29.8062 5.07656 30.1625C4.85885 30.5187 4.75 30.9146 4.75 31.35V33.25ZM19 14.25C20.3062 14.25 21.4245 13.7849 22.3547 12.8547C23.2849 11.9245 23.75 10.8062 23.75 9.5C23.75 8.19375 23.2849 7.07552 22.3547 6.14531C21.4245 5.2151 20.3062 4.75 19 4.75C17.6938 4.75 16.5755 5.2151 15.6453 6.14531C14.7151 7.07552 14.25 8.19375 14.25 9.5C14.25 10.8062 14.7151 11.9245 15.6453 12.8547C16.5755 13.7849 17.6938 14.25 19 14.25Z" fill="#DBC826"/>
</svg>
