<svg width="14" height="16" viewBox="0 0 14 16" fill="none" xmlns="http://www.w3.org/2000/svg">
<path d="M6.98679 3.32482e-05C6.42898 3.32482e-05 5.90802 0.254037 5.46396 0.669973C5.01997 1.08601 4.63986 1.6654 4.323 2.36722C4.2566 2.51424 4.19318 2.66704 4.13255 2.82466C3.96537 2.79833 3.80098 2.77678 3.64015 2.76071C3.44856 2.74162 3.26163 2.72976 3.08001 2.72551C2.53481 2.71256 2.03654 2.76785 1.59981 2.90023C1.01756 3.07677 0.537116 3.40103 0.258209 3.88404C-0.0206969 4.36714 -0.0612048 4.94534 0.0770198 5.53788C0.215311 6.13039 0.526989 6.74927 0.976393 7.37461C1.07069 7.50577 1.17143 7.63732 1.27774 7.76883C1.17156 7.90022 1.07096 8.03157 0.976791 8.16262C0.527354 8.78794 0.215676 9.40681 0.0774183 9.99935C-0.0608395 10.5919 -0.0202985 11.1701 0.258608 11.6531C0.537514 12.1362 1.01796 12.4604 1.60021 12.6369C2.1825 12.8135 2.87432 12.853 3.64055 12.7764C3.80118 12.7604 3.96527 12.7389 4.13222 12.7126C4.19298 12.8705 4.2565 13.0236 4.323 13.1709C4.63986 13.8728 5.01994 14.4521 5.46396 14.8681C5.90799 15.2841 6.42901 15.5381 6.98679 15.5381C7.54454 15.5381 8.06556 15.2841 8.50958 14.8681C8.95358 14.4521 9.33369 13.8728 9.65054 13.1709C9.71705 13.0236 9.78057 12.8706 9.84133 12.7127C10.0081 12.7389 10.172 12.7604 10.3325 12.7764C11.0988 12.8529 11.7907 12.8135 12.3729 12.6369C12.9552 12.4604 13.4356 12.1361 13.7145 11.6531C13.9934 11.17 14.034 10.5919 13.8957 9.99935C13.7574 9.40684 13.4457 8.78797 12.9964 8.16262C12.9022 8.0316 12.8016 7.90025 12.6954 7.76883C12.8017 7.63735 12.9025 7.50587 12.9967 7.37465C13.4461 6.7493 13.7578 6.13043 13.8961 5.53792C14.0343 4.94537 13.9938 4.36717 13.7149 3.88407C13.436 3.40106 12.9555 3.0768 12.3733 2.90026C11.9366 2.76788 11.4383 2.7126 10.8931 2.72551C10.7114 2.72976 10.5244 2.74162 10.3329 2.76071C10.1722 2.77678 10.0079 2.79833 9.8409 2.82462C9.7802 2.66704 9.71678 2.51427 9.65041 2.36722C9.33355 1.6653 8.95348 1.08591 8.50945 0.669939C8.06543 0.253971 7.5444 0 6.98666 0L6.98679 3.32482e-05ZM6.98679 0.6205C7.35883 0.6205 7.72363 0.783959 8.08535 1.12286C8.44703 1.4617 8.79248 1.97462 9.085 2.62255C9.13161 2.72581 9.1768 2.83286 9.22066 2.94273C8.50955 3.10084 7.7564 3.34342 6.98659 3.66755C6.21694 3.34349 5.46389 3.10097 4.75292 2.94286C4.79681 2.83296 4.8419 2.72584 4.88858 2.62252C5.1811 1.97456 5.52655 1.46163 5.88826 1.12273C6.24998 0.783893 6.61475 0.620434 6.98686 0.620434L6.98679 0.6205ZM2.88321 3.34505C2.94311 3.34445 3.00397 3.34485 3.06577 3.34624C3.23045 3.3499 3.40168 3.36052 3.57852 3.37822C3.69161 3.38951 3.80719 3.40395 3.92463 3.42098C3.70596 4.11583 3.53947 4.88929 3.43515 5.71798C2.76949 6.22266 2.1828 6.75371 1.69033 7.29058C1.61688 7.19744 1.54656 7.10464 1.48025 7.0124C1.06538 6.43513 0.793942 5.87951 0.681284 5.3968C0.568659 4.9141 0.609565 4.51649 0.795569 4.19429C0.981573 3.87208 1.30557 3.6379 1.77984 3.4941C2.09112 3.3997 2.46383 3.34883 2.88318 3.34502L2.88321 3.34505ZM11.09 3.34505C11.5093 3.34887 11.882 3.39973 12.1933 3.49413C12.6676 3.6379 12.9915 3.87208 13.1775 4.19429C13.3636 4.51649 13.4045 4.91413 13.2919 5.3968C13.1793 5.87948 12.9077 6.43513 12.4929 7.0124C12.4266 7.10464 12.3563 7.19744 12.2829 7.29064C11.7905 6.75385 11.204 6.22293 10.5385 5.71831C10.4342 4.88949 10.2676 4.11593 10.0489 3.42098C10.1662 3.40395 10.2816 3.38944 10.3946 3.37822C10.5715 3.36052 10.7427 3.3499 10.9074 3.34621C10.9692 3.34482 11.03 3.34442 11.09 3.34498V3.34505ZM9.43247 3.53231C9.59749 4.0449 9.73412 4.61049 9.83608 5.21571C9.51348 4.99767 9.17614 4.78633 8.82518 4.58369C8.47439 4.38115 8.12293 4.19478 7.77297 4.02445C8.34805 3.81013 8.9061 3.6457 9.43247 3.53238V3.53231ZM4.54108 3.53241C5.06735 3.64577 5.62533 3.81019 6.20024 4.02448C5.85028 4.19482 5.49882 4.38119 5.14803 4.58369C4.79721 4.78623 4.46006 4.99747 4.13753 5.21535C4.23946 4.61029 4.37606 4.04487 4.54108 3.53241ZM6.98659 4.34456C7.49151 4.56729 8.00403 4.82614 8.51493 5.12112C9.02603 5.41623 9.50671 5.73073 9.95213 6.05678C10.0118 6.60553 10.0438 7.17898 10.0438 7.76907C10.0438 8.35882 10.0119 8.93204 9.95226 9.48055C9.50684 9.80654 9.02623 10.121 8.5153 10.416C8.0043 10.711 7.49164 10.97 6.98662 11.1927C6.48154 10.97 5.96888 10.711 5.45788 10.416C4.94705 10.1211 4.46664 9.80674 4.02139 9.48089C3.96179 8.93227 3.92974 8.35895 3.92974 7.76903C3.92974 7.17885 3.96179 6.60533 4.02145 6.05652C4.4668 5.73056 4.94732 5.41609 5.45825 5.12112C5.96918 4.82617 6.4817 4.56729 6.98659 4.34463V4.34456ZM7.02856 5.2781L5.25213 6.37437L7.02856 7.47074L8.80499 6.37437L7.02856 5.27807V5.2781ZM3.35098 6.57747C3.32352 6.96588 3.30924 7.36372 3.30924 7.76897C3.30924 8.17398 3.32352 8.57155 3.35101 8.95976C2.87787 8.56896 2.45642 8.16787 2.09504 7.76867C2.45642 7.3695 2.87784 6.96834 3.35098 6.57747ZM10.6226 6.5778C11.0955 6.96861 11.5169 7.3696 11.8781 7.7687C11.5169 8.1678 11.0955 8.5688 10.6226 8.9595C10.6501 8.57142 10.6643 8.17391 10.6643 7.769C10.6643 7.36379 10.6501 6.96615 10.6226 6.5778H10.6226ZM4.85193 6.85651V9.02129L6.71761 10.1727V8.008L4.85193 6.85651ZM9.20346 6.85764L7.33821 8.00879V10.1724L9.2035 9.02129V6.85764H9.20346ZM1.69026 8.24686C2.1828 8.78375 2.76943 9.31467 3.43502 9.81936C3.53928 10.6479 3.70582 11.4213 3.92443 12.1162C3.80722 12.1331 3.69181 12.1476 3.57892 12.1589C2.87156 12.2295 2.25455 12.1868 1.78024 12.043C1.3059 11.8993 0.982038 11.665 0.796 11.3428C0.609996 11.0205 0.569057 10.6229 0.681682 10.1403C0.794307 9.65759 1.06578 9.10194 1.48065 8.52467C1.54682 8.43253 1.61698 8.33986 1.69026 8.24686ZM12.2829 8.24696C12.3561 8.33993 12.4263 8.43256 12.4925 8.52467C12.9073 9.10191 13.1788 9.65756 13.2914 10.1402C13.404 10.6229 13.3632 11.0205 13.1772 11.3428C12.9911 11.665 12.6672 11.8992 12.1928 12.043C11.7186 12.1868 11.1017 12.2295 10.3943 12.1589C10.2815 12.1476 10.1663 12.1332 10.0491 12.1162C10.2678 11.4212 10.4343 10.6476 10.5386 9.81889C11.204 9.31434 11.7905 8.78356 12.2829 8.24689L12.2829 8.24696ZM9.83622 10.3216C9.73428 10.9268 9.59768 11.4923 9.43266 12.0049C8.90626 11.8916 8.34815 11.727 7.77304 11.5128C8.12307 11.3424 8.47462 11.156 8.82558 10.9533C9.17644 10.7508 9.51368 10.5395 9.83628 10.3216H9.83622ZM4.1374 10.3219C4.4598 10.5397 4.79688 10.7509 5.14757 10.9533C5.49853 11.156 5.85015 11.3424 6.20011 11.5128C5.62516 11.727 5.06722 11.8915 4.54085 12.0048C4.37583 11.4924 4.23933 10.9269 4.1374 10.3219ZM7.00515 10.3501L7.02773 10.3641L7.05021 10.3501H7.00518H7.00515ZM6.98656 11.8698C7.75654 12.1938 8.50972 12.4364 9.22093 12.5944C9.17697 12.7047 9.13175 12.8119 9.085 12.9155C8.79248 13.5634 8.44703 14.0763 8.08531 14.4152C7.72363 14.7541 7.35883 14.9176 6.98679 14.9176C6.61471 14.9176 6.24991 14.7541 5.88823 14.4152C5.52655 14.0763 5.1811 13.5634 4.88858 12.9155C4.84183 12.8119 4.79661 12.7046 4.75262 12.5944C5.4637 12.4363 6.21681 12.1938 6.98662 11.8698H6.98656Z" fill="white"/>
</svg>
