<svg width="17" height="16" viewBox="0 0 17 16" fill="none" xmlns="http://www.w3.org/2000/svg">
<path d="M1.30942 15.64C0.791635 15.4181 0.449517 15.0741 0.119425 14.62C0.00194931 14.2676 -0.0348644 13.9675 0.0344238 13.6C0.188772 13.3284 0.402111 13.132 0.629424 12.92C0.669992 12.882 0.710561 12.8439 0.752359 12.8048C0.985085 12.5871 1.21973 12.3717 1.45552 12.1573C1.70635 11.928 1.9473 11.6904 2.18599 11.4484C2.42157 11.2098 2.65861 10.9806 2.9138 10.7631C3.21622 10.5048 3.49515 10.2277 3.77442 9.94501C4.09996 9.61544 4.43067 9.3022 4.7838 9.00204C5.02341 8.7871 5.24827 8.55896 5.47442 8.33001C5.79996 8.00044 6.13067 7.6872 6.4838 7.38704C6.72341 7.1721 6.94827 6.94396 7.17442 6.71501C7.44846 6.43758 7.72141 6.1652 8.01911 5.91282C8.3355 5.64399 8.62519 5.35243 8.91692 5.05751C10.2311 3.73339 10.2311 3.73339 11.0094 3.4103C11.2153 3.28772 11.2473 3.18709 11.3288 2.96438C11.6946 2.08641 12.2806 1.60881 13.0979 1.14552C13.3589 0.978827 13.4668 0.769011 13.6344 0.510008C13.7949 0.314356 13.9497 0.166322 14.1444 8.58307e-06C14.3728 0.0134945 14.4637 0.0652256 14.6292 0.223465C14.6726 0.277702 14.716 0.33194 14.7607 0.387821C14.8049 0.442277 14.8492 0.496734 14.8948 0.55284C14.9277 0.594806 14.9606 0.636771 14.9944 0.680008C15.0786 0.539759 15.1627 0.399508 15.2494 0.255009C15.4091 0.311454 15.4091 0.311454 15.5894 0.425008C15.6821 0.634188 15.6821 0.634188 15.7541 0.881884C15.8861 1.28578 16.0068 1.44894 16.3544 1.70001C16.3942 1.96313 16.3771 2.08865 16.2356 2.31593C15.9264 2.65869 15.6461 2.92345 15.2388 3.14501C14.7779 3.39911 14.5768 3.72048 14.3144 4.16501C13.8798 4.76868 13.2577 5.16533 12.6144 5.52501C12.5583 5.52501 12.5022 5.52501 12.4444 5.52501C12.4208 5.60916 12.4208 5.60916 12.3966 5.69501C12.0405 6.43815 11.2962 7.05369 10.6813 7.58759C10.3199 7.90214 9.97104 8.22866 9.62349 8.55845C9.19003 8.96814 8.75572 9.37668 8.31661 9.78032C7.90523 10.1586 7.49677 10.5399 7.08942 10.9225C6.63409 11.3502 6.17696 11.7757 5.71743 12.1989C5.36956 12.5194 5.02327 12.8416 4.67755 13.1644C4.6246 13.2138 4.57165 13.2631 4.5171 13.314C4.24225 13.5705 3.96814 13.8277 3.69507 14.0861C1.907 15.7753 1.907 15.7753 1.30942 15.64ZM2.44232 14.8541C2.58885 14.7064 2.73481 14.5582 2.88026 14.4095C3.11596 14.1734 3.36278 13.9565 3.61605 13.7398C3.82393 13.5563 4.01608 13.3594 4.21017 13.1616C4.36352 13.0108 4.52145 12.8699 4.68452 12.7298C5.04709 12.4145 5.39688 12.0872 5.74536 11.7566C6.17882 11.3469 6.61313 10.9383 7.05224 10.5347C7.46362 10.1564 7.87207 9.77513 8.27942 9.39251C9.91642 7.85587 9.91642 7.85587 10.431 7.42157C10.5064 7.3567 10.5818 7.29184 10.6594 7.22501C10.6594 7.19696 10.6594 7.16891 10.6594 7.14001C10.4631 7.11196 10.2667 7.08391 10.0644 7.05501C9.94909 6.79288 9.98721 6.69165 10.0804 6.4122C10.2926 6.00975 10.2926 6.00975 10.5744 5.86501C10.8001 5.79657 11.0235 5.74505 11.2544 5.69501C11.2544 5.66696 11.2544 5.63891 11.2544 5.61001C11.2035 5.61347 11.1525 5.61694 11.1 5.62051C10.8664 5.63579 10.6328 5.64947 10.3991 5.66313C10.319 5.66861 10.2388 5.67409 10.1562 5.67974C9.77371 5.70106 9.52039 5.71482 9.15765 5.57382C8.88397 5.49513 8.88397 5.49513 8.70855 5.62329C8.51879 5.78525 8.34617 5.95619 8.17317 6.13595C8.1099 6.19861 8.04663 6.26128 7.98145 6.32585C7.79563 6.51054 7.61236 6.69747 7.42942 6.88501C7.33695 6.97792 7.24434 7.07069 7.15151 7.16325C6.99817 7.31638 6.84529 7.46996 6.69298 7.62411C6.46995 7.84415 6.23636 8.0469 5.99804 8.24999C5.75757 8.4661 5.53157 8.69505 5.30442 8.92501C4.97888 9.25458 4.64818 9.56782 4.29505 9.86798C4.0083 10.1252 3.7411 10.4016 3.47047 10.6756C3.18743 10.9608 2.89558 11.2283 2.58941 11.4886C2.32367 11.7261 2.07615 11.9815 1.82598 12.2351C1.59552 12.4675 1.36071 12.6903 1.11286 12.9041C1.05972 12.9502 1.00658 12.9963 0.951827 13.0439C0.85015 13.1314 0.747653 13.2179 0.644366 13.3035C0.407237 13.5141 0.296263 13.6548 0.225674 13.9666C0.324982 14.4548 0.562363 14.8543 0.953819 15.1692C1.59111 15.5573 1.96395 15.3156 2.44232 14.8541ZM11.8312 6.08481C11.9517 5.95582 11.9517 5.95582 11.9344 5.78001C11.7286 5.8138 11.5234 5.84945 11.3182 5.88626C11.2602 5.89557 11.2022 5.90489 11.1425 5.91448C10.766 5.98394 10.553 6.0682 10.3194 6.37501C10.2117 6.64136 10.2117 6.64136 10.1494 6.88501C10.831 6.97296 11.3847 6.5485 11.8312 6.08481ZM11.5944 5.61001C11.2544 5.52501 11.2544 5.52501 11.2544 5.52501L11.5944 5.61001ZM13.8044 4.16501C13.9814 3.97221 14.1495 3.7732 14.3144 3.57001C14.259 3.5811 14.2035 3.5922 14.1463 3.60363C13.9792 3.63704 13.8121 3.67045 13.645 3.70384C13.4524 3.74239 13.2599 3.78106 13.0673 3.81984C12.6109 3.91162 12.1545 4.00229 11.6967 4.08698C11.6217 4.10114 11.5466 4.1153 11.4693 4.1299C11.3308 4.15594 11.1922 4.18129 11.0535 4.20576C10.3101 4.34737 9.70415 4.59483 9.21442 5.18501C9.21442 5.26916 9.21442 5.35331 9.21442 5.44001C10.5752 5.87547 12.7455 5.03837 13.8044 4.16501ZM12.2479 3.79845C12.4046 3.77125 12.4046 3.77125 12.5645 3.74349C13.1618 3.63676 13.7385 3.50709 14.3144 3.31501C13.9824 3.19159 13.6825 3.26304 13.3456 3.32729C13.285 3.33833 13.2244 3.34937 13.162 3.36074C13.0341 3.38421 12.9062 3.40802 12.7784 3.43215C12.584 3.4688 12.3894 3.5043 12.1947 3.53963C12.0701 3.56264 11.9455 3.58571 11.8209 3.60886C11.7632 3.6194 11.7056 3.62995 11.6462 3.64081C11.3063 3.7055 10.9851 3.79329 10.6594 3.91001C10.6594 3.93806 10.6594 3.96611 10.6594 3.99501C11.1997 4.01083 11.7182 3.89388 12.2479 3.79845ZM15.4194 2.46501C15.2479 2.4318 15.0763 2.3986 14.9048 2.3654C14.7394 2.29501 14.7394 2.29501 14.6325 2.11837C14.6117 2.06446 14.5909 2.01055 14.5694 1.95501C13.1701 1.96629 13.1701 1.96629 11.9258 2.51979C11.68 2.78715 11.532 3.02821 11.5094 3.40001C12.5421 3.42061 14.6569 3.22758 15.4194 2.46501ZM16.0994 1.95501C15.8844 1.69221 15.6553 1.62272 15.3344 1.53001C15.2792 1.6089 15.2792 1.6089 15.2229 1.68938C15.0794 1.87001 15.0794 1.87001 14.8244 2.04001C14.9928 2.24505 14.9928 2.24505 15.3185 2.23657C15.6407 2.23011 15.8381 2.15104 16.0994 1.95501ZM14.6544 1.70001C14.6264 1.64391 14.5983 1.58781 14.5694 1.53001C14.0536 1.50851 13.6207 1.55565 13.1244 1.70001C13.1244 1.72806 13.1244 1.75611 13.1244 1.78501C13.6409 1.79457 14.1414 1.75888 14.6544 1.70001ZM14.9944 1.53001C15.0786 1.40378 15.0786 1.40378 15.1644 1.27501C15.345 1.21657 15.345 1.21657 15.5044 1.19001C15.4764 1.02171 15.4483 0.853408 15.4194 0.680008C15.2884 0.796871 15.2884 0.796871 15.1644 0.935008C15.1644 0.991108 15.1644 1.04721 15.1644 1.10501C14.9118 1.00942 14.711 0.916059 14.4844 0.765008C14.5831 1.13521 14.661 1.32994 14.9944 1.53001ZM14.3144 1.27501C14.2864 1.16281 14.2583 1.05061 14.2294 0.935008C13.9085 1.02772 13.6794 1.09721 13.4644 1.36001C13.7544 1.36001 14.028 1.31823 14.3144 1.27501ZM14.1444 0.680008C14.1164 0.623908 14.0883 0.567808 14.0594 0.510008C14.0314 0.566109 14.0033 0.622209 13.9744 0.680008C14.0305 0.680008 14.0866 0.680008 14.1444 0.680008Z" fill="white"/>
</svg>
