<svg width="70" height="70" viewBox="0 0 70 70" fill="none" xmlns="http://www.w3.org/2000/svg">
<path d="M7.75 62H13.2719L51.15 24.1219L45.6281 18.6L7.75 56.4781V62ZM0 69.75V53.2812L51.15 2.22812C51.925 1.51771 52.7807 0.96875 53.7172 0.58125C54.6536 0.19375 55.6385 0 56.6719 0C57.7052 0 58.7062 0.19375 59.675 0.58125C60.6437 0.96875 61.4833 1.55 62.1937 2.325L67.5219 7.75C68.2969 8.46042 68.862 9.3 69.2172 10.2687C69.5724 11.2375 69.75 12.2062 69.75 13.175C69.75 14.2083 69.5724 15.1932 69.2172 16.1297C68.862 17.0661 68.2969 17.9219 67.5219 18.6969L16.4688 69.75H0ZM48.3406 21.4094L45.6281 18.6L51.15 24.1219L48.3406 21.4094Z" fill="#E3E3E3"/>
</svg>
