<svg width="30" height="30" viewBox="0 0 30 30" fill="none" xmlns="http://www.w3.org/2000/svg">
<path d="M6.19136 20.3951H8.37654V20.0309C8.37654 18.307 8.97747 16.8441 10.1793 15.6423C11.3812 14.4404 12.844 13.8395 14.5679 13.8395C16.2918 13.8395 17.7546 14.4404 18.9565 15.6423C20.1583 16.8441 20.7593 18.307 20.7593 20.0309V20.3951H22.9444V20.0309C22.9444 17.7 22.1311 15.7212 20.5043 14.0944C18.8776 12.4677 16.8988 11.6543 14.5679 11.6543C12.237 11.6543 10.2582 12.4677 8.63148 14.0944C7.00473 15.7212 6.19136 17.7 6.19136 20.0309V20.3951ZM7.42963 10.5617C8.4251 10.416 9.47521 10.0276 10.5799 9.3963C11.6847 8.76502 12.5648 8.04877 13.2204 7.24753L11.5451 5.86358C11.0595 6.4463 10.3857 6.98045 9.52377 7.46605C8.66183 7.95165 7.86667 8.25514 7.13827 8.37654L7.42963 10.5617ZM21.7062 10.5617L21.9975 8.37654C21.2691 8.25514 20.474 7.95165 19.612 7.46605C18.7501 6.98045 18.0763 6.4463 17.5907 5.86358L15.9154 7.24753C16.571 8.04877 17.4511 8.76502 18.5559 9.3963C19.6606 10.0276 20.7107 10.416 21.7062 10.5617ZM14.5679 29.1358C12.5527 29.1358 10.6588 28.7534 8.88642 27.9886C7.11399 27.2238 5.57222 26.1858 4.26111 24.8747C2.95 23.5636 1.91204 22.0218 1.14722 20.2494C0.382407 18.477 0 16.5831 0 14.5679C0 12.5527 0.382407 10.6588 1.14722 8.88642C1.91204 7.11399 2.95 5.57222 4.26111 4.26111C5.57222 2.95 7.11399 1.91204 8.88642 1.14722C10.6588 0.382407 12.5527 0 14.5679 0C16.5831 0 18.477 0.382407 20.2494 1.14722C22.0218 1.91204 23.5636 2.95 24.8747 4.26111C26.1858 5.57222 27.2238 7.11399 27.9886 8.88642C28.7534 10.6588 29.1358 12.5527 29.1358 14.5679C29.1358 16.5831 28.7534 18.477 27.9886 20.2494C27.2238 22.0218 26.1858 23.5636 24.8747 24.8747C23.5636 26.1858 22.0218 27.2238 20.2494 27.9886C18.477 28.7534 16.5831 29.1358 14.5679 29.1358ZM14.5679 26.2222C17.8214 26.2222 20.5772 25.0932 22.8352 22.8352C25.0932 20.5772 26.2222 17.8214 26.2222 14.5679C26.2222 11.3144 25.0932 8.55864 22.8352 6.30062C20.5772 4.04259 17.8214 2.91358 14.5679 2.91358C11.3144 2.91358 8.55864 4.04259 6.30062 6.30062C4.04259 8.55864 2.91358 11.3144 2.91358 14.5679C2.91358 17.8214 4.04259 20.5772 6.30062 22.8352C8.55864 25.0932 11.3144 26.2222 14.5679 26.2222Z" fill="#E3E3E3"/>
</svg>
