<svg width="32" height="32" viewBox="0 0 32 32" fill="none" xmlns="http://www.w3.org/2000/svg">
<path d="M12 24.0001C11.2667 24.0001 10.6389 23.739 10.1167 23.2167C9.59444 22.6945 9.33333 22.0667 9.33333 21.3334V5.33341C9.33333 4.60008 9.59444 3.9723 10.1167 3.45008C10.6389 2.92786 11.2667 2.66675 12 2.66675H24C24.7333 2.66675 25.3611 2.92786 25.8833 3.45008C26.4056 3.9723 26.6667 4.60008 26.6667 5.33341V21.3334C26.6667 22.0667 26.4056 22.6945 25.8833 23.2167C25.3611 23.739 24.7333 24.0001 24 24.0001H12ZM12 21.3334H24V5.33341H12V21.3334ZM6.66667 29.3334C5.93333 29.3334 5.30556 29.0723 4.78333 28.5501C4.26111 28.0279 4 27.4001 4 26.6667V8.00008H6.66667V26.6667H21.3333V29.3334H6.66667Z" fill="#E3E3E3"/>
</svg>
