<svg width="26" height="21" viewBox="0 0 26 21" fill="none" xmlns="http://www.w3.org/2000/svg">
<path d="M15.6 11.8125H22.1V9.1875H15.6V11.8125ZM15.6 7.875H22.1V5.25H15.6V7.875ZM3.9 15.75H14.3V15.0281C14.3 14.0437 13.8233 13.2617 12.87 12.682C11.9167 12.1023 10.66 11.8125 9.1 11.8125C7.54 11.8125 6.28333 12.1023 5.33 12.682C4.37667 13.2617 3.9 14.0437 3.9 15.0281V15.75ZM9.1 10.5C9.815 10.5 10.4271 10.243 10.9362 9.72891C11.4454 9.21484 11.7 8.59687 11.7 7.875C11.7 7.15312 11.4454 6.53516 10.9362 6.02109C10.4271 5.50703 9.815 5.25 9.1 5.25C8.385 5.25 7.77292 5.50703 7.26375 6.02109C6.75458 6.53516 6.5 7.15312 6.5 7.875C6.5 8.59687 6.75458 9.21484 7.26375 9.72891C7.77292 10.243 8.385 10.5 9.1 10.5ZM2.6 21C1.885 21 1.27292 20.743 0.76375 20.2289C0.254583 19.7148 0 19.0969 0 18.375V2.625C0 1.90313 0.254583 1.28516 0.76375 0.771094C1.27292 0.257031 1.885 0 2.6 0H23.4C24.115 0 24.7271 0.257031 25.2362 0.771094C25.7454 1.28516 26 1.90313 26 2.625V18.375C26 19.0969 25.7454 19.7148 25.2362 20.2289C24.7271 20.743 24.115 21 23.4 21H2.6ZM2.6 18.375H23.4V2.625H2.6V18.375Z" fill="#E3E3E3"/>
</svg>
